<svg width="20" height="21" viewBox="0 0 20 21" fill="none" xmlns="http://www.w3.org/2000/svg">
<path id="agenda" d="M17.7692 1.61538H15.3462V0.807692C15.3462 0.593479 15.2611 0.388039 15.1096 0.236568C14.9581 0.0850959 14.7527 0 14.5385 0C14.3242 0 14.1188 0.0850959 13.9673 0.236568C13.8159 0.388039 13.7308 0.593479 13.7308 0.807692V1.61538H5.65385V0.807692C5.65385 0.593479 5.56875 0.388039 5.41728 0.236568C5.26581 0.0850959 5.06037 0 4.84615 0C4.63194 0 4.4265 0.0850959 4.27503 0.236568C4.12356 0.388039 4.03846 0.593479 4.03846 0.807692V1.61538H1.61538C1.18696 1.61538 0.776078 1.78558 0.473135 2.08852C0.170192 2.39146 0 2.80234 0 3.23077V19.3846C0 19.813 0.170192 20.2239 0.473135 20.5269C0.776078 20.8298 1.18696 21 1.61538 21H17.7692C18.1977 21 18.6085 20.8298 18.9115 20.5269C19.2144 20.2239 19.3846 19.813 19.3846 19.3846V3.23077C19.3846 2.80234 19.2144 2.39146 18.9115 2.08852C18.6085 1.78558 18.1977 1.61538 17.7692 1.61538ZM4.03846 3.23077V4.03846C4.03846 4.25267 4.12356 4.45811 4.27503 4.60959C4.4265 4.76106 4.63194 4.84615 4.84615 4.84615C5.06037 4.84615 5.26581 4.76106 5.41728 4.60959C5.56875 4.45811 5.65385 4.25267 5.65385 4.03846V3.23077H13.7308V4.03846C13.7308 4.25267 13.8159 4.45811 13.9673 4.60959C14.1188 4.76106 14.3242 4.84615 14.5385 4.84615C14.7527 4.84615 14.9581 4.76106 15.1096 4.60959C15.2611 4.45811 15.3462 4.25267 15.3462 4.03846V3.23077H17.7692V6.46154H1.61538V3.23077H4.03846ZM17.7692 19.3846H1.61538V8.07692H17.7692V19.3846Z" fill="#A09DA4"/>
</svg>
