<svg width="25" height="24" viewBox="0 0 25 24" fill="none" xmlns="http://www.w3.org/2000/svg">
<g id="apple (1) 1">
<g id="Group">
<path id="Vector" d="M9.73652 20.0001C6.75992 19.9829 4.29773 13.9067 4.29773 10.8122C4.29773 5.75735 8.08972 4.65071 9.55113 4.65071C10.2097 4.65071 10.913 4.90934 11.5332 5.13821C11.967 5.29786 12.4156 5.46266 12.6651 5.46266C12.8144 5.46266 13.1663 5.32247 13.477 5.19946C14.1396 4.93567 14.9642 4.60782 15.9243 4.60782C15.9261 4.60782 15.9284 4.60782 15.93 4.60782C16.647 4.60782 18.8208 4.76516 20.1277 6.72782L20.4339 7.18786L19.9933 7.52032C19.3639 7.99524 18.2154 8.86157 18.2154 10.5776C18.2154 12.6101 19.5161 13.3917 20.1409 13.7677C20.4167 13.9336 20.7022 14.1047 20.7022 14.4789C20.7022 14.7232 18.7521 19.9698 15.9203 19.9698C15.2274 19.9698 14.7376 19.7615 14.3055 19.5778C13.8684 19.3918 13.4913 19.2316 12.8682 19.2316C12.5523 19.2316 12.1529 19.381 11.73 19.5395C11.1522 19.7552 10.4981 20.0001 9.75597 20.0001H9.73652Z" fill="white"/>
<path id="Vector_2" d="M16.2244 0C16.2981 2.65922 14.3964 4.50406 12.4968 4.38836C12.1838 2.26621 14.3961 0 16.2244 0Z" fill="white"/>
</g>
</g>
</svg>
