<svg width="22" height="22" viewBox="0 0 22 22" fill="none" xmlns="http://www.w3.org/2000/svg">
<g id="calendar-check 1">
<path id="Vector" d="M17.875 2.75H15.8125V2.0625C15.8125 1.88016 15.7401 1.7053 15.6111 1.57636C15.4822 1.44743 15.3073 1.375 15.125 1.375C14.9427 1.375 14.7678 1.44743 14.6389 1.57636C14.5099 1.7053 14.4375 1.88016 14.4375 2.0625V2.75H7.5625V2.0625C7.5625 1.88016 7.49007 1.7053 7.36114 1.57636C7.2322 1.44743 7.05734 1.375 6.875 1.375C6.69266 1.375 6.5178 1.44743 6.38886 1.57636C6.25993 1.7053 6.1875 1.88016 6.1875 2.0625V2.75H4.125C3.76033 2.75 3.41059 2.89487 3.15273 3.15273C2.89487 3.41059 2.75 3.76033 2.75 4.125V17.875C2.75 18.2397 2.89487 18.5894 3.15273 18.8473C3.41059 19.1051 3.76033 19.25 4.125 19.25H17.875C18.2397 19.25 18.5894 19.1051 18.8473 18.8473C19.1051 18.5894 19.25 18.2397 19.25 17.875V4.125C19.25 3.76033 19.1051 3.41059 18.8473 3.15273C18.5894 2.89487 18.2397 2.75 17.875 2.75ZM6.1875 4.125V4.8125C6.1875 4.99484 6.25993 5.1697 6.38886 5.29864C6.5178 5.42757 6.69266 5.5 6.875 5.5C7.05734 5.5 7.2322 5.42757 7.36114 5.29864C7.49007 5.1697 7.5625 4.99484 7.5625 4.8125V4.125H14.4375V4.8125C14.4375 4.99484 14.5099 5.1697 14.6389 5.29864C14.7678 5.42757 14.9427 5.5 15.125 5.5C15.3073 5.5 15.4822 5.42757 15.6111 5.29864C15.7401 5.1697 15.8125 4.99484 15.8125 4.8125V4.125H17.875V6.875H4.125V4.125H6.1875ZM17.875 17.875H4.125V8.25H17.875V17.875ZM14.5802 10.5136C14.6441 10.5774 14.6948 10.6533 14.7294 10.7367C14.764 10.8202 14.7818 10.9097 14.7818 11C14.7818 11.0903 14.764 11.1798 14.7294 11.2633C14.6948 11.3467 14.6441 11.4226 14.5802 11.4864L10.4552 15.6114C10.3913 15.6753 10.3155 15.726 10.232 15.7606C10.1486 15.7952 10.0591 15.813 9.96875 15.813C9.8784 15.813 9.78894 15.7952 9.70548 15.7606C9.62202 15.726 9.54619 15.6753 9.48234 15.6114L7.41984 13.5489C7.29084 13.4199 7.21837 13.2449 7.21837 13.0625C7.21837 12.8801 7.29084 12.7051 7.41984 12.5761C7.54885 12.4471 7.72381 12.3746 7.90625 12.3746C8.08869 12.3746 8.26365 12.4471 8.39266 12.5761L9.96875 14.153L13.6073 10.5136C13.6712 10.4497 13.747 10.399 13.8305 10.3644C13.9139 10.3298 14.0034 10.312 14.0938 10.312C14.1841 10.312 14.2736 10.3298 14.357 10.3644C14.4405 10.399 14.5163 10.4497 14.5802 10.5136Z" fill="white"/>
</g>
</svg>
