<svg width="19" height="19" viewBox="0 0 19 19" fill="none" xmlns="http://www.w3.org/2000/svg">
<g id="fi-rr-bell" clip-path="url(#clip0_604_494)">
<path id="Vector" d="M17.856 10.8157L16.3519 5.40383C15.911 3.81839 14.9528 2.42581 13.6296 1.44746C12.3064 0.469101 10.6941 -0.0388847 9.0491 0.00424535C7.40406 0.0473754 5.82064 0.639146 4.55054 1.68549C3.28043 2.73184 2.39652 4.17272 2.03932 5.77908L0.874777 11.016C0.746144 11.5946 0.749118 12.1948 0.88348 12.7721C1.01784 13.3495 1.28016 13.8893 1.65107 14.3517C2.02198 14.8141 2.49201 15.1873 3.02646 15.4437C3.5609 15.7001 4.14612 15.8333 4.7389 15.8333H5.62082C5.80252 16.7281 6.28798 17.5325 6.99495 18.1104C7.70192 18.6882 8.58691 19.0039 9.49999 19.0039C10.4131 19.0039 11.2981 18.6882 12.005 18.1104C12.712 17.5325 13.1975 16.7281 13.3792 15.8333H14.0426C14.6528 15.8333 15.2548 15.6923 15.8015 15.4211C16.3482 15.15 16.8248 14.7562 17.1941 14.2704C17.5633 13.7846 17.8153 13.22 17.9303 12.6207C18.0453 12.0214 18.0201 11.4036 17.8568 10.8157H17.856ZM9.49999 17.4166C9.01053 17.4146 8.53365 17.2614 8.1346 16.9779C7.73554 16.6945 7.4338 16.2947 7.27065 15.8333H11.7293C11.5662 16.2947 11.2644 16.6945 10.8654 16.9779C10.4663 17.2614 9.98944 17.4146 9.49999 17.4166ZM15.9331 13.3118C15.7125 13.6044 15.4267 13.8416 15.0983 14.0045C14.77 14.1673 14.4083 14.2514 14.0418 14.2499H4.7389C4.38327 14.2499 4.0322 14.1699 3.71159 14.016C3.39098 13.8622 3.10902 13.6382 2.88653 13.3608C2.66404 13.0834 2.50669 12.7595 2.4261 12.4131C2.34551 12.0668 2.34373 11.7067 2.4209 11.3595L3.58465 6.12188C3.86518 4.86012 4.55944 3.72835 5.55705 2.90648C6.55467 2.08461 7.7984 1.6198 9.09052 1.58595C10.3826 1.5521 11.649 1.95115 12.6883 2.71966C13.7276 3.48818 14.4801 4.58204 14.8263 5.82738L16.3305 11.2392C16.4299 11.5918 16.4457 11.9627 16.3767 12.3225C16.3077 12.6822 16.1558 13.021 15.9331 13.3118Z" fill="white"/>
</g>
<defs>
<clipPath id="clip0_604_494">
<rect width="19" height="19" fill="white"/>
</clipPath>
</defs>
</svg>
