<svg width="24" height="24" viewBox="0 0 24 24" fill="none" xmlns="http://www.w3.org/2000/svg">
<g id="fi-rr-angle-double-small-left">
<path id="Vector" d="M10.4801 19C10.2178 18.9989 9.96637 18.8947 9.7801 18.71L5.1901 14.12C4.6283 13.5575 4.31274 12.795 4.31274 12C4.31274 11.205 4.6283 10.4425 5.1901 9.88L9.7801 5.29C9.96747 5.10375 10.2209 4.99921 10.4851 4.99921C10.7493 4.99921 11.0027 5.10375 11.1901 5.29C11.2838 5.38296 11.3582 5.49356 11.409 5.61542C11.4598 5.73728 11.4859 5.86799 11.4859 6C11.4859 6.13201 11.4598 6.26272 11.409 6.38458C11.3582 6.50644 11.2838 6.61704 11.1901 6.71L6.6001 11.29C6.50638 11.383 6.43198 11.4936 6.38121 11.6154C6.33044 11.7373 6.30431 11.868 6.30431 12C6.30431 12.132 6.33044 12.2627 6.38121 12.3846C6.43198 12.5064 6.50638 12.617 6.6001 12.71L11.1901 17.29C11.2838 17.383 11.3582 17.4936 11.409 17.6154C11.4598 17.7373 11.4859 17.868 11.4859 18C11.4859 18.132 11.4598 18.2627 11.409 18.3846C11.3582 18.5064 11.2838 18.617 11.1901 18.71C11.0967 18.8027 10.9858 18.876 10.864 18.9258C10.7422 18.9755 10.6117 19.0008 10.4801 19Z" fill="#FCFCFC"/>
<path id="Vector_2" d="M17.4799 19C17.2176 18.9989 16.9662 18.8947 16.7799 18.71L10.7799 12.71C10.6862 12.617 10.6118 12.5064 10.561 12.3846C10.5103 12.2627 10.4841 12.132 10.4841 12C10.4841 11.868 10.5103 11.7373 10.561 11.6154C10.6118 11.4936 10.6862 11.383 10.7799 11.29L16.7799 5.29C16.9673 5.10375 17.2207 4.99921 17.4849 4.99921C17.7491 4.99921 18.0026 5.10375 18.1899 5.29C18.2836 5.38296 18.358 5.49356 18.4088 5.61542C18.4596 5.73728 18.4857 5.86799 18.4857 6C18.4857 6.13201 18.4596 6.26272 18.4088 6.38458C18.358 6.50644 18.2836 6.61704 18.1899 6.71L12.8999 12L18.1899 17.29C18.2836 17.383 18.358 17.4936 18.4088 17.6154C18.4596 17.7373 18.4857 17.868 18.4857 18C18.4857 18.132 18.4596 18.2627 18.4088 18.3846C18.358 18.5064 18.2836 18.617 18.1899 18.71C18.0965 18.8027 17.9857 18.876 17.8638 18.9258C17.742 18.9755 17.6115 19.0008 17.4799 19Z" fill="#FCFCFC"/>
</g>
</svg>
