<svg width="20" height="18" viewBox="0 0 20 18" fill="none" xmlns="http://www.w3.org/2000/svg">
<g id="fi-rr-angle-small-right">
<path id="Vector" d="M12.8332 7.40998L9.00819 3.96748C8.85205 3.8278 8.64084 3.74939 8.42069 3.74939C8.20053 3.74939 7.98932 3.8278 7.83319 3.96748C7.75508 4.03721 7.69309 4.12016 7.65078 4.21155C7.60847 4.30295 7.58669 4.40098 7.58669 4.49998C7.58669 4.59899 7.60847 4.69702 7.65078 4.78842C7.69309 4.87981 7.75508 4.96276 7.83319 5.03248L11.6665 8.46748C11.7446 8.53721 11.8066 8.62016 11.8489 8.71155C11.8912 8.80295 11.913 8.90098 11.913 8.99998C11.913 9.09899 11.8912 9.19702 11.8489 9.28842C11.8066 9.37981 11.7446 9.46276 11.6665 9.53249L7.83319 12.9675C7.67627 13.1077 7.58767 13.2983 7.58689 13.4973C7.58611 13.6964 7.67321 13.8875 7.82902 14.0287C7.98484 14.17 8.1966 14.2497 8.41774 14.2504C8.63888 14.2511 8.85127 14.1727 9.00819 14.0325L12.8332 10.59C13.3014 10.1681 13.5643 9.59624 13.5643 8.99998C13.5643 8.40373 13.3014 7.83186 12.8332 7.40998Z" fill="#4C4C4C"/>
</g>
</svg>
