<svg width="21" height="21" viewBox="0 0 21 21" fill="none" xmlns="http://www.w3.org/2000/svg">
<g id="fi-rr-menu-burger">
<path id="Vector" d="M20.125 9.62476H0.875C0.391751 9.62476 0 10.0165 0 10.4998C0 10.983 0.391751 11.3748 0.875 11.3748H20.125C20.6082 11.3748 21 10.983 21 10.4998C21 10.0165 20.6082 9.62476 20.125 9.62476Z" fill="white"/>
<path id="Vector_2" d="M20.125 3.50024H0.875C0.391751 3.50024 0 3.89199 0 4.37524C0 4.85849 0.391751 5.25024 0.875 5.25024H20.125C20.6082 5.25024 21 4.85849 21 4.37524C21 3.89199 20.6082 3.50024 20.125 3.50024Z" fill="white"/>
<path id="Vector_3" d="M20.125 15.75H0.875C0.391751 15.75 0 16.1418 0 16.625C0 17.1083 0.391751 17.5 0.875 17.5H20.125C20.6082 17.5 21 17.1083 21 16.625C21 16.1418 20.6082 15.75 20.125 15.75Z" fill="white"/>
</g>
</svg>
