<svg width="20" height="20" viewBox="0 0 20 20" fill="none" xmlns="http://www.w3.org/2000/svg">
<path d="M19 10.1652C19 9.42694 18.9387 8.8882 18.806 8.32951H10.179V11.6617H15.2428C15.1408 12.4898 14.5895 13.7369 13.3643 14.5749L13.3471 14.6864L16.0748 16.7514L16.2638 16.7698C17.9994 15.2034 19 12.8988 19 10.1652Z" fill="#4285F4"/>
<path d="M10.179 18.9449C12.6599 18.9449 14.7426 18.1467 16.2639 16.77L13.3644 14.575C12.5885 15.1038 11.5471 15.4729 10.179 15.4729C7.7492 15.4729 5.68689 13.9066 4.95174 11.7417L4.84398 11.7506L2.00767 13.8956L1.97058 13.9964C3.48157 16.9295 6.58527 18.9449 10.179 18.9449Z" fill="#34A853"/>
<path d="M4.95165 11.7415C4.75767 11.1828 4.64541 10.5842 4.64541 9.96567C4.64541 9.34708 4.75768 8.7485 4.94145 8.18981L4.93631 8.07082L2.06446 5.89137L1.9705 5.93505C1.34775 7.15222 0.990417 8.51905 0.990417 9.96567C0.990417 11.4123 1.34775 12.779 1.9705 13.9962L4.95165 11.7415Z" fill="#FBBC05"/>
<path d="M10.179 4.45856C11.9044 4.45856 13.0682 5.18685 13.7319 5.79547L16.3251 3.32124C14.7324 1.87462 12.6599 0.986694 10.179 0.986694C6.58525 0.986694 3.48157 3.00197 1.97058 5.93509L4.94152 8.18986C5.68688 6.02492 7.74918 4.45856 10.179 4.45856Z" fill="#EB4335"/>
</svg>
