<svg width="44" height="44" viewBox="0 0 44 44" fill="none" xmlns="http://www.w3.org/2000/svg">
<g id="home">
<circle id="Ellipse 4" cx="22" cy="22" r="22" fill="#343434"/>
<path id="Vector" d="M32.9423 19.3666L23.5467 10.5018C23.5421 10.4978 23.5378 10.4935 23.5338 10.4889C23.1878 10.1743 22.7371 10 22.2695 10C21.8019 10 21.3511 10.1743 21.0052 10.4889L20.9922 10.5018L11.6072 19.3666C11.4158 19.5427 11.2629 19.7565 11.1584 19.9947C11.0539 20.2328 11 20.4901 11 20.7501V31.6079C11 32.1063 11.198 32.5843 11.5504 32.9367C11.9028 33.2891 12.3808 33.4871 12.8791 33.4871H18.5165C19.0149 33.4871 19.4928 33.2891 19.8452 32.9367C20.1976 32.5843 20.3956 32.1063 20.3956 31.6079V25.9706H24.1539V31.6079C24.1539 32.1063 24.3519 32.5843 24.7043 32.9367C25.0567 33.2891 25.5346 33.4871 26.033 33.4871H31.6704C32.1688 33.4871 32.6467 33.2891 32.9991 32.9367C33.3515 32.5843 33.5495 32.1063 33.5495 31.6079V20.7501C33.5495 20.4901 33.4956 20.2328 33.3911 19.9947C33.2866 19.7565 33.1337 19.5427 32.9423 19.3666ZM31.6704 31.6079H26.033V25.9706C26.033 25.4722 25.835 24.9942 25.4826 24.6418C25.1302 24.2894 24.6523 24.0914 24.1539 24.0914H20.3956C19.8973 24.0914 19.4193 24.2894 19.0669 24.6418C18.7145 24.9942 18.5165 25.4722 18.5165 25.9706V31.6079H12.8791V20.7501L12.892 20.7384L22.2747 11.8771L31.6586 20.736L31.6715 20.7478L31.6704 31.6079Z" fill="#FB7B05"/>
</g>
</svg>
