<svg width="16" height="20" viewBox="0 0 16 20" fill="none" xmlns="http://www.w3.org/2000/svg">
<path id="Local" d="M7.85722 4.28576C7.15085 4.28576 6.46035 4.49522 5.87302 4.88766C5.2857 5.2801 4.82793 5.83788 4.55762 6.49048C4.2873 7.14308 4.21658 7.86118 4.35438 8.55398C4.49219 9.24678 4.83234 9.88315 5.33182 10.3826C5.83129 10.8821 6.46767 11.2223 7.16046 11.3601C7.85326 11.4979 8.57136 11.4271 9.22396 11.1568C9.87656 10.8865 10.4344 10.4287 10.8268 9.84142C11.2192 9.2541 11.4287 8.56359 11.4287 7.85722C11.4287 6.91001 11.0524 6.00159 10.3826 5.33182C9.71285 4.66204 8.80443 4.28576 7.85722 4.28576ZM7.85722 10.0001C7.4334 10.0001 7.0191 9.87442 6.6667 9.63896C6.31431 9.4035 6.03965 9.06883 5.87746 8.67727C5.71527 8.28571 5.67283 7.85484 5.75552 7.43917C5.8382 7.02349 6.04229 6.64166 6.34198 6.34198C6.64166 6.04229 7.02349 5.8382 7.43917 5.75552C7.85485 5.67283 8.28571 5.71527 8.67727 5.87746C9.06883 6.03965 9.4035 6.31431 9.63896 6.6667C9.87442 7.0191 10.0001 7.4334 10.0001 7.85722C10.0001 8.42555 9.77433 8.9706 9.37247 9.37247C8.9706 9.77433 8.42555 10.0001 7.85722 10.0001ZM7.85722 0C5.77408 0.00236318 3.77694 0.830934 2.30394 2.30394C0.830934 3.77694 0.00236318 5.77408 0 7.85722C0 10.6608 1.29555 13.6323 3.75004 16.4511C4.85292 17.7248 6.09422 18.8717 7.45097 19.8707C7.57107 19.9549 7.71415 20 7.86079 20C8.00743 20 8.15052 19.9549 8.27062 19.8707C9.62487 18.8713 10.8638 17.7244 11.9644 16.4511C14.4153 13.6323 15.7144 10.6608 15.7144 7.85722C15.7121 5.77408 14.8835 3.77694 13.4105 2.30394C11.9375 0.830934 9.94036 0.00236318 7.85722 0ZM7.85722 18.393C6.38131 17.2323 1.42859 12.9689 1.42859 7.85722C1.42859 6.15224 2.10589 4.51709 3.31149 3.31149C4.51709 2.10589 6.15224 1.42859 7.85722 1.42859C9.5622 1.42859 11.1974 2.10589 12.403 3.31149C13.6086 4.51709 14.2859 6.15224 14.2859 7.85722C14.2859 12.9671 9.33313 17.2323 7.85722 18.393Z" fill="white"/>
</svg>
