<svg width="18" height="23" viewBox="0 0 18 23" fill="none" xmlns="http://www.w3.org/2000/svg">
<path id="Local" d="M9 4.90909C8.19089 4.90909 7.39996 5.14902 6.72721 5.59853C6.05447 6.04805 5.53012 6.68696 5.22049 7.43448C4.91086 8.18199 4.82985 9.00454 4.9877 9.7981C5.14555 10.5917 5.53517 11.3206 6.10729 11.8927C6.67941 12.4648 7.40834 12.8545 8.2019 13.0123C8.99546 13.1702 9.81801 13.0891 10.5655 12.7795C11.313 12.4699 11.952 11.9455 12.4015 11.2728C12.851 10.6 13.0909 9.8091 13.0909 9C13.0909 7.91502 12.6599 6.87448 11.8927 6.10729C11.1255 5.3401 10.085 4.90909 9 4.90909ZM9 11.4545C8.51454 11.4545 8.03998 11.3106 7.63633 11.0409C7.23268 10.7712 6.91807 10.3878 6.7323 9.93931C6.54652 9.4908 6.49791 8.99728 6.59262 8.52114C6.68733 8.04501 6.9211 7.60765 7.26437 7.26437C7.60765 6.9211 8.04501 6.68733 8.52114 6.59262C8.99728 6.49791 9.4908 6.54652 9.93931 6.7323C10.3878 6.91807 10.7712 7.23268 11.0409 7.63633C11.3106 8.03998 11.4545 8.51454 11.4545 9C11.4545 9.65098 11.1959 10.2753 10.7356 10.7356C10.2753 11.1959 9.65099 11.4545 9 11.4545ZM9 0C6.61388 0.00270689 4.32627 0.951788 2.63903 2.63903C0.951787 4.32627 0.00270689 6.61388 0 9C0 12.2114 1.48398 15.615 4.29545 18.8437C5.55875 20.3027 6.98058 21.6165 8.53466 22.7608C8.67223 22.8572 8.83612 22.9089 9.00409 22.9089C9.17206 22.9089 9.33595 22.8572 9.47352 22.7608C11.0247 21.616 12.4438 20.3023 13.7045 18.8437C16.5119 15.615 18 12.2114 18 9C17.9973 6.61388 17.0482 4.32627 15.361 2.63903C13.6737 0.951788 11.3861 0.00270689 9 0ZM9 21.0682C7.30943 19.7386 1.63636 14.8551 1.63636 9C1.63636 7.04704 2.41217 5.17407 3.79312 3.79312C5.17407 2.41217 7.04704 1.63636 9 1.63636C10.953 1.63636 12.8259 2.41217 14.2069 3.79312C15.5878 5.17407 16.3636 7.04704 16.3636 9C16.3636 14.8531 10.6906 19.7386 9 21.0682Z" fill="#A09DA4"/>
</svg>
