<svg width="21" height="21" viewBox="0 0 21 21" fill="none" xmlns="http://www.w3.org/2000/svg">
<g id="logo tik tok">
<path id="Vector" d="M18.375 5.90625C17.331 5.90516 16.3302 5.48997 15.592 4.75178C14.8538 4.01359 14.4386 3.01271 14.4375 1.96875C14.4375 1.7947 14.3684 1.62778 14.2453 1.50471C14.1222 1.38164 13.9553 1.3125 13.7812 1.3125H10.5C10.326 1.3125 10.159 1.38164 10.036 1.50471C9.91289 1.62778 9.84375 1.7947 9.84375 1.96875V12.7969C9.84362 13.0905 9.76471 13.3786 9.61526 13.6313C9.46581 13.884 9.2513 14.092 8.99409 14.2335C8.73688 14.375 8.44641 14.445 8.15297 14.436C7.85953 14.427 7.57388 14.3395 7.3258 14.1825C7.07773 14.0255 6.87632 13.8048 6.74259 13.5434C6.60886 13.2821 6.54771 12.9897 6.56552 12.6966C6.58333 12.4036 6.67944 12.1207 6.84383 11.8775C7.00821 11.6342 7.23486 11.4395 7.50012 11.3138C7.61232 11.2605 7.70711 11.1765 7.77347 11.0715C7.83983 10.9665 7.87504 10.8449 7.875 10.7207V7.21875C7.87504 7.12282 7.85405 7.02805 7.81351 6.94111C7.77297 6.85417 7.71386 6.77718 7.64034 6.71555C7.56683 6.65392 7.4807 6.60916 7.38802 6.58442C7.29533 6.55968 7.19835 6.55556 7.10391 6.57234C4.17621 7.09406 1.96875 9.76992 1.96875 12.7969C1.96875 14.4503 2.62558 16.0361 3.79476 17.2052C4.96393 18.3744 6.54967 19.0312 8.20312 19.0312C9.85658 19.0312 11.4423 18.3744 12.6115 17.2052C13.7807 16.0361 14.4375 14.4503 14.4375 12.7969V9.53941C15.6529 10.1736 17.0041 10.5032 18.375 10.5C18.549 10.5 18.716 10.4309 18.839 10.3078C18.9621 10.1847 19.0312 10.0178 19.0312 9.84375V6.5625C19.0312 6.38845 18.9621 6.22153 18.839 6.09846C18.716 5.97539 18.549 5.90625 18.375 5.90625ZM17.7188 9.15797C16.4363 9.04433 15.2083 8.58663 14.1643 7.83316C14.0662 7.76262 13.9505 7.72054 13.83 7.71156C13.7095 7.70258 13.5888 7.72706 13.4813 7.78229C13.3738 7.83752 13.2837 7.92136 13.2208 8.02457C13.1579 8.12777 13.1248 8.24634 13.125 8.36719V12.7969C13.125 14.1022 12.6064 15.3541 11.6834 16.2772C10.7604 17.2002 9.50849 17.7188 8.20312 17.7188C6.89776 17.7188 5.64586 17.2002 4.72283 16.2772C3.7998 15.3541 3.28125 14.1022 3.28125 12.7969C3.28125 10.6723 4.64625 8.76668 6.5625 8.07188V10.3417C6.13828 10.6251 5.79472 11.0136 5.56533 11.4694C5.33593 11.9251 5.22852 12.4325 5.25356 12.9421C5.2786 13.4517 5.43524 13.9461 5.7082 14.3771C5.98117 14.8082 6.36116 15.1611 6.81113 15.4016C7.2611 15.6421 7.7657 15.7619 8.27575 15.7494C8.7858 15.7368 9.2839 15.5924 9.7215 15.33C10.1591 15.0677 10.5213 14.6965 10.7727 14.2525C11.0242 13.8086 11.1563 13.3071 11.1562 12.7969V2.625H13.166C13.3136 3.78089 13.8407 4.85508 14.6647 5.67905C15.4887 6.50302 16.5629 7.03015 17.7188 7.17773V9.15797Z" fill="#8F8D8D"/>
</g>
</svg>
