<svg width="21" height="21" viewBox="0 0 21 21" fill="none" xmlns="http://www.w3.org/2000/svg">
<path id="logo instagram" d="M10.5 5.65385C9.54152 5.65385 8.60457 5.93807 7.80762 6.47057C7.01067 7.00307 6.38953 7.75994 6.02274 8.64546C5.65594 9.53098 5.55997 10.5054 5.74696 11.4454C5.93395 12.3855 6.3955 13.249 7.07325 13.9267C7.751 14.6045 8.6145 15.066 9.55456 15.253C10.4946 15.44 11.469 15.3441 12.3545 14.9773C13.2401 14.6105 13.9969 13.9893 14.5294 13.1924C15.0619 12.3954 15.3462 11.4585 15.3462 10.5C15.3448 9.21513 14.8338 7.98327 13.9253 7.07473C13.0167 6.16619 11.7849 5.65518 10.5 5.65385ZM10.5 13.7308C9.86101 13.7308 9.23638 13.5413 8.70508 13.1863C8.17378 12.8313 7.75969 12.3267 7.51516 11.7364C7.27063 11.146 7.20665 10.4964 7.33131 9.86971C7.45597 9.243 7.76367 8.66733 8.2155 8.2155C8.66733 7.76367 9.243 7.45597 9.86971 7.33131C10.4964 7.20665 11.146 7.27063 11.7364 7.51516C12.3267 7.75969 12.8313 8.17378 13.1863 8.70508C13.5413 9.23638 13.7308 9.86101 13.7308 10.5C13.7308 11.3569 13.3904 12.1786 12.7845 12.7845C12.1786 13.3904 11.3569 13.7308 10.5 13.7308ZM15.3462 0H5.65385C4.15484 0.0016035 2.7177 0.59779 1.65774 1.65774C0.59779 2.7177 0.0016035 4.15484 0 5.65385V15.3462C0.0016035 16.8452 0.59779 18.2823 1.65774 19.3423C2.7177 20.4022 4.15484 20.9984 5.65385 21H15.3462C16.8452 20.9984 18.2823 20.4022 19.3423 19.3423C20.4022 18.2823 20.9984 16.8452 21 15.3462V5.65385C20.9984 4.15484 20.4022 2.7177 19.3423 1.65774C18.2823 0.59779 16.8452 0.0016035 15.3462 0ZM19.3846 15.3462C19.3846 16.4172 18.9591 17.4444 18.2018 18.2018C17.4444 18.9591 16.4172 19.3846 15.3462 19.3846H5.65385C4.58278 19.3846 3.55558 18.9591 2.79822 18.2018C2.04086 17.4444 1.61538 16.4172 1.61538 15.3462V5.65385C1.61538 4.58278 2.04086 3.55558 2.79822 2.79822C3.55558 2.04086 4.58278 1.61538 5.65385 1.61538H15.3462C16.4172 1.61538 17.4444 2.04086 18.2018 2.79822C18.9591 3.55558 19.3846 4.58278 19.3846 5.65385V15.3462ZM16.9615 5.25C16.9615 5.48962 16.8905 5.72386 16.7574 5.92309C16.6242 6.12233 16.435 6.27762 16.2136 6.36932C15.9923 6.46101 15.7487 6.48501 15.5136 6.43826C15.2786 6.39151 15.0627 6.27612 14.8933 6.10669C14.7239 5.93725 14.6085 5.72137 14.5617 5.48636C14.515 5.25134 14.539 5.00774 14.6307 4.78636C14.7224 4.56498 14.8777 4.37577 15.0769 4.24264C15.2761 4.10952 15.5104 4.03846 15.75 4.03846C16.0713 4.03846 16.3795 4.16611 16.6067 4.39331C16.8339 4.62052 16.9615 4.92868 16.9615 5.25Z" fill="#8F8D8D"/>
</svg>
