<svg width="21" height="21" viewBox="0 0 21 21" fill="none" xmlns="http://www.w3.org/2000/svg">
<path id="perfil" d="M20.8809 18.9652C19.3448 16.3095 16.9775 14.4051 14.2148 13.5024C15.5814 12.6889 16.6431 11.4493 17.2369 9.97397C17.8308 8.49865 17.9239 6.86918 17.5021 5.33579C17.0802 3.80241 16.1666 2.4499 14.9017 1.48598C13.6367 0.522049 12.0904 0 10.5 0C8.90964 0 7.36325 0.522049 6.09831 1.48598C4.83337 2.4499 3.91982 3.80241 3.49795 5.33579C3.07608 6.86918 3.16922 8.49865 3.76307 9.97397C4.35691 11.4493 5.41863 12.6889 6.78517 13.5024C4.0225 14.4041 1.65522 16.3085 0.119056 18.9652C0.0627227 19.0571 0.0253569 19.1593 0.0091637 19.2658C-0.00702948 19.3723 -0.00172202 19.481 0.0247729 19.5855C0.0512678 19.6899 0.0984136 19.788 0.163428 19.8739C0.228443 19.9599 0.31001 20.0319 0.403317 20.0858C0.496623 20.1397 0.59978 20.1744 0.706699 20.1877C0.813619 20.2011 0.922135 20.1929 1.02585 20.1637C1.12956 20.1345 1.22636 20.0848 1.31055 20.0175C1.39474 19.9503 1.46461 19.8668 1.51603 19.7721C3.41631 16.488 6.77508 14.5272 10.5 14.5272C14.2249 14.5272 17.5837 16.488 19.484 19.7721C19.5354 19.8668 19.6053 19.9503 19.6894 20.0175C19.7736 20.0848 19.8704 20.1345 19.9742 20.1637C20.0779 20.1929 20.1864 20.2011 20.2933 20.1877C20.4002 20.1744 20.5034 20.1397 20.5967 20.0858C20.69 20.0319 20.7716 19.9599 20.8366 19.8739C20.9016 19.788 20.9487 19.6899 20.9752 19.5855C21.0017 19.481 21.007 19.3723 20.9908 19.2658C20.9746 19.1593 20.9373 19.0571 20.8809 18.9652ZM4.8516 7.26497C4.8516 6.14782 5.18288 5.05576 5.80353 4.12689C6.42418 3.19801 7.30634 2.47404 8.33845 2.04653C9.37056 1.61902 10.5063 1.50716 11.6019 1.7251C12.6976 1.94305 13.7041 2.48101 14.494 3.27095C15.284 4.06089 15.8219 5.06734 16.0399 6.16302C16.2578 7.2587 16.146 8.3944 15.7184 9.42651C15.2909 10.4586 14.567 11.3408 13.6381 11.9614C12.7092 12.5821 11.6171 12.9134 10.5 12.9134C9.00244 12.9118 7.56668 12.3161 6.50775 11.2572C5.44882 10.1983 4.85321 8.76252 4.8516 7.26497Z" fill="#B3B0B8"/>
</svg>
