<svg width="20" height="16" viewBox="0 0 20 16" fill="none" xmlns="http://www.w3.org/2000/svg">
<path id="Vector" d="M19.507 8.43725L17.6614 10.2829C17.6042 10.3401 17.5364 10.3854 17.4617 10.4164C17.387 10.4474 17.307 10.4633 17.2261 10.4633C17.1453 10.4633 17.0652 10.4474 16.9905 10.4164C16.9159 10.3854 16.848 10.3401 16.7909 10.2829L14.9452 8.43725C14.8298 8.32181 14.765 8.16525 14.765 8.00199C14.765 7.83874 14.8298 7.68217 14.9452 7.56673C15.0607 7.4513 15.2173 7.38644 15.3805 7.38644C15.5438 7.38644 15.7003 7.4513 15.8158 7.56673L16.6109 8.36266V8.00199C16.6116 6.56905 16.1575 5.17286 15.3138 4.01457C14.4702 2.85628 13.2807 1.99567 11.9167 1.55671C10.5526 1.11776 9.08441 1.12313 7.7236 1.57204C6.36279 2.02096 5.17959 2.89024 4.34447 4.05467C4.24922 4.18724 4.10521 4.27655 3.94412 4.30294C3.78303 4.32933 3.61806 4.29065 3.48549 4.1954C3.35292 4.10016 3.26361 3.95615 3.23722 3.79506C3.21083 3.63397 3.24951 3.46899 3.34476 3.33642C4.33177 1.96029 5.73013 0.932995 7.33839 0.402512C8.94665 -0.12797 10.6818 -0.134252 12.2939 0.384573C13.9059 0.903398 15.3117 1.92055 16.3086 3.28949C17.3056 4.65843 17.8422 6.3085 17.8413 8.00199V8.36266L18.6365 7.56673C18.7519 7.4513 18.9085 7.38644 19.0717 7.38644C19.235 7.38644 19.3916 7.4513 19.507 7.56673C19.6224 7.68217 19.6873 7.83874 19.6873 8.00199C19.6873 8.16525 19.6224 8.32181 19.507 8.43725ZM16.3402 12.6668C15.3529 14.0419 13.9548 15.0682 12.347 15.5981C10.7393 16.128 9.00487 16.134 7.39346 15.6154C5.78204 15.0968 4.37675 14.0803 3.37985 12.7121C2.38296 11.344 1.84589 9.69481 1.84596 8.00199V7.64133L1.05081 8.43725C0.93537 8.55269 0.778802 8.61754 0.615549 8.61754C0.452295 8.61754 0.295728 8.55269 0.18029 8.43725C0.0648523 8.32181 0 8.16525 0 8.00199C0 7.83874 0.0648523 7.68217 0.18029 7.56673L2.02591 5.72111C2.08305 5.66391 2.1509 5.61854 2.22558 5.58758C2.30027 5.55662 2.38032 5.54068 2.46117 5.54068C2.54202 5.54068 2.62207 5.55662 2.69676 5.58758C2.77144 5.61854 2.83929 5.66391 2.89643 5.72111L4.74205 7.56673C4.85748 7.68217 4.92234 7.83874 4.92234 8.00199C4.92234 8.16525 4.85748 8.32181 4.74205 8.43725C4.62661 8.55269 4.47004 8.61754 4.30679 8.61754C4.14353 8.61754 3.98697 8.55269 3.87153 8.43725L3.07638 7.64133V8.00199C3.07492 9.65859 3.68378 11.2577 4.78665 12.4938C5.47278 11.4995 6.43757 10.7303 7.55969 10.2829C6.95693 9.80812 6.51709 9.15734 6.30134 8.42102C6.08559 7.68471 6.10465 6.89946 6.35588 6.17448C6.6071 5.4495 7.078 4.82083 7.70308 4.37588C8.32817 3.93094 9.07638 3.69184 9.84365 3.69184C10.6109 3.69184 11.3591 3.93094 11.9842 4.37588C12.6093 4.82083 13.0802 5.4495 13.3314 6.17448C13.5826 6.89946 13.6017 7.68471 13.386 8.42102C13.1702 9.15734 12.7304 9.80812 12.1276 10.2829C13.2508 10.7304 14.2162 11.5005 14.9022 12.4961C15.0577 12.3214 15.2043 12.1389 15.3413 11.9493C15.4365 11.8167 15.5805 11.7274 15.7416 11.701C15.9027 11.6747 16.0677 11.7133 16.2003 11.8086C16.3328 11.9038 16.4221 12.0478 16.4485 12.2089C16.4749 12.37 16.4362 12.535 16.341 12.6676L16.3402 12.6668ZM9.84365 9.84761C10.3304 9.84761 10.8061 9.70329 11.2108 9.43289C11.6155 9.16249 11.9309 8.77816 12.1172 8.3285C12.3034 7.87885 12.3521 7.38406 12.2572 6.9067C12.1622 6.42935 11.9279 5.99087 11.5837 5.64672C11.2396 5.30257 10.8011 5.0682 10.3237 4.97324C9.84638 4.87829 9.35159 4.92702 8.90193 5.11328C8.45227 5.29953 8.06794 5.61494 7.79755 6.01962C7.52715 6.42431 7.38282 6.90008 7.38282 7.38679C7.38282 8.03944 7.64209 8.66536 8.10358 9.12685C8.56507 9.58835 9.191 9.84761 9.84365 9.84761ZM9.84365 14.7693C11.3451 14.7673 12.8035 14.2672 13.9901 13.3474C13.5451 12.6513 12.932 12.0785 12.2073 11.6817C11.4827 11.285 10.6698 11.077 9.84365 11.077C9.01748 11.077 8.20461 11.285 7.47996 11.6817C6.75531 12.0785 6.14221 12.6513 5.69715 13.3474C6.88206 14.2705 8.34159 14.771 9.84365 14.7693Z" fill="#FCFCFC"/>
</svg>
